<svg xmlns="http://www.w3.org/2000/svg" xml:space="preserve" width="1024" height="1024" stroke-miterlimit="10" style="fill-rule:nonzero;clip-rule:evenodd;stroke-linecap:round;stroke-linejoin:round" viewBox="0 0 1024 1024"><path fill="#b6c" d="M326.531 70.531s-111.269 98.374-198.125 248.813C41.551 469.782 12 615.344 12 615.344l585.656 338.125 314.532-544.813z"/><path fill="#eae5ff" d="M912.177 408.668S882.625 554.213 795.77 704.651c-86.856 150.438-198.125 248.803-198.125 248.803s29.551-145.544 116.407-295.983c86.856-150.438 198.125-248.803 198.125-248.803"/><path fill="#fff" d="M558.04 322.913c-3.164-1.271-6.041-.147-7.552 3.436-30.453 68.179-58.788 144.264-77.606 205.795-1.27 3.164.094 5.623 3.018 7.311l14.795 9.099c3.759 2.17 6.635 1.046 7.729-2.777 7.157-22.042 14.796-44.919 23.577-68.808l54.297 31.348-33.037 57.221q-2.894 5.012 2.119 7.905l17.124 9.887q5.012 2.894 7.906-2.118l33.036-57.221 36.755 21.221q5.012 2.894 7.905-2.119l10.852-18.795q2.894-5.012-2.119-7.905l-122.794-70.896a914 914 0 0 1 19.055-47.472l102.329 59.079q5.011 2.894 7.905-2.118l10.369-17.96q2.893-5.012-2.118-7.905l-106.088-61.25c4.711-10.089 9.004-20.419 13.715-30.507 1.512-3.583.806-6.218-2.777-7.729zM416.585 573.707c-12.892 20.401-29.29 48.803-39.788 68.916-18.167 36.289-13.53 56.23 35.914 89.232 3.1 2.347 5.494 2.058 8.435-.142l17.887-13.619c3.182-2.618 2.717-5.671-.801-8.259-40.914-27.52-41.826-37.514-29.27-63.121 7.846-15.518 17.492-32.225 27.249-47.197 8.311-12.465 16.746-12.607 29.276-5.373l31.743 18.327c-16.002 47.007-27.844 100.314-23.117 140.355-.018 3.888 2.488 5.335 6.2 4.694l21.853-4.09c3.711-.642 5.158-3.148 4.934-6.618-5.226-35.318 3.899-82.954 16.861-118.908l51.373 29.66q5.011 2.894 7.906-2.118l11.092-19.213q2.894-5.012-2.118-7.905l-117.365-67.761c-22.554-13.022-42.542-11.196-58.264 13.14M434.923 257.4c-3.165-1.271-5.8-.565-7.488 2.359-28.76 50.779-59.515 105.976-88.292 160.643l-91.47-52.81q-5.012-2.894-7.905 2.119l-12.057 20.883q-2.894 5.012 2.118 7.906l93.14 53.774c-24.437 47.149-47.074 93.11-66.159 133.882-10.588.013-21.594-.215-31.459-1.456-3.888-.017-5.929 1.589-6.782 4.995l-3.269 22.059c-.676 4.065 1.348 6.347 4.995 6.782 32.953 1.762 76.094-.618 109.211-8.786 3.294-.882 4.917-2.73 5.111-5.959l3.14-19.906c.499-4.724-1.765-6.588-6.136-5.77-13.594 3.289-28.2 5.437-42.741 6.509 20.532-43.278 43.281-87.504 65.483-129.817.951 41.759 6.414 91.135 13.471 131.963.4 4.13 3.565 5.4 7.165 3.023l20.81-11.931c2.7-1.782 3.906-3.871 3.023-7.165-6.561-31.076-13.118-76.628-15.675-120.428 14.929-7.531 29.858-15.061 44.61-23.251 1.132 27.941 6.488 61.105 13.902 88.775 1.059 3.953 4.224 5.224 7.823 2.847l19.799-13.073c2.941-2.2 3.729-4.529 2.847-7.823-8.797-26.241-14.699-57.493-15.943-87.17 13.017-8.077 26.034-16.155 38.874-24.891 2.7-1.783 3.488-4.112 2.606-7.406l-4.573-21.018c-1.477-4.194-4.224-5.223-7.824-2.846-32.109 23.785-67.014 43.729-103.588 62.709-.16-4.547.34-9.271.181-13.818 24.484-44.337 51.974-91.951 75.412-129.653 1.929-3.342.806-6.218-2.777-7.729zM162.579 575.747c1.96 3.358 5.189 3.552 7.953.693 31.615-33.538 71.648-63.329 107.564-82.133 3.359-1.959 4.147-4.288 2.846-7.823l-6.919-17.917c-1.3-3.536-4.465-4.806-7.582-3.264-38.069 18.673-83.678 51.371-115.582 82.515-2.523 2.442-2.893 5.012-.693 7.953zm181.176-358.175c-3.23-.194-5.271 1.412-6.541 4.577-12.884 45.466-17.704 93.361-15.582 140.808-.017 3.888 2.665 5.993 6.377 5.352l20.535-3.737c3.47-.224 5.335-2.489 5.111-5.959-2.686-41.647 2.969-89.06 18.359-133.079 1.335-4.241-.689-6.523-4.994-6.781z"/><path fill="#b6c" d="m725.593 911.331.786-.286 34.487-16.559c3.395-1.681 4.252-4.219 3.108-7.364-8.586-23.588-13.415-35.631-15.817-60.579-6.882-67.838 23.269-121.997 63.936-149.71 7.725 16.332 14.128 32.7 19.995 48.819 13.02 35.774 21.072 68.906 21.367 99.073-21.125-2.997-42.323-13.535-60.987-33.009-1.895-1.536-3.503-2.286-5.076-1.714-1.179.429-2.466 1.788-2.536 4.04l-8.138 41.249c-.213 1.859-.57 3.325-.141 4.504s1.251 2.216 2.61 3.502c20.2 17.579 43.114 27.938 66.384 31.934-7.786 20.197-21.327 38.037-41.696 53.019-2.073 1.645-3.073 3.79-2.501 5.363q.644 1.769 3.647 2.679l42.539 16.572c2.001.607 3.86.821 5.433.249.786-.286 1.429-.966 2.465-1.788 25.622-21.346 40.769-48.229 47.622-78.327 4.861-1.323 9.722-2.647 14.439-4.364 40.099-14.595 73.26-45.809 87.361-86.56 10.18-29.526 9.07-60.729-.95-88.248-16.455-45.21-56.605-80.905-109.935-85.536-16.978-1.389-34.277.01-51.111 3.911-5.758-12.151-11.516-24.302-17.668-36.31-2.503-4.431-5.327-6.074-8.865-4.787l-41.922 15.704c-3.538 1.288-4.395 3.826-3.393 6.578l.572 1.572c6.83 12.651 13.411 25.838 19.705 38.239-40.739 25.068-71.358 66.932-77.741 119.118-8.98-28.341-15.028-55.969-20.865-90.352-.644-4.217-3.325-5.467-6.863-4.18l-40.493 14.738c-3.538 1.288-4.931 3.576-4.036 7.257 8.661 40.923 22.187 90.316 40.788 141.423 10.445 28.698 22.893 58.004 36.519 86.88 1.538 3.002 3.826 4.395 6.971 3.25m181.653-94.164c-2.191-36.6-12.282-76.558-27.593-118.622a811 811 0 0 0-16.489-41.636c6.326-.967 12.938-1.147 19.443-.399 34.493 3.028 59.091 26.575 69.393 54.881 6.869 18.87 7.447 40.03.018 58.761-7.893 21.126-24.115 37.716-44.772 47.015"/><path fill="#ab5ccc" d="M818.875 570.687c-.801-.042-1.647.085-2.531.407l-41.906 15.718c-3.539 1.288-4.408 3.811-3.407 6.563l.563 1.594c6.83 12.651 13.424 25.818 19.718 38.219-40.739 25.067-71.367 66.938-77.75 119.124-6.63-20.926-11.658-41.501-16.187-64.656-13.255 24.935-24.902 49.399-35.187 72.875 5.886 19.703 12.366 39.94 19.906 60.657 3.593 9.873 7.497 19.837 11.531 29.812 17.989-21.837 37.124-46.81 56.25-74.344 7.7-43.549 31.327-78.079 60.719-98.719 12.02-22.4 22.671-44.42 32.281-65.75-5.758-12.15-11.505-24.273-17.656-36.281-1.878-3.323-3.94-5.092-6.344-5.219"/></svg>