<svg xmlns="http://www.w3.org/2000/svg" xml:space="preserve" width="1024" height="1024" stroke-miterlimit="10" style="fill-rule:nonzero;clip-rule:evenodd;stroke-linecap:round;stroke-linejoin:round" viewBox="0 0 1024 1024"><path fill="#999" d="M160.969 134.656v754.688S318.137 942 512 942s351.031-52.656 351.031-52.656V134.656H160.969"/><path fill="#e6e6e6" d="M160.98 134.653S318.137 82 512 82s351.02 52.653 351.02 52.653S705.863 187.306 512 187.306s-351.02-52.653-351.02-52.653"/><path fill="#fff" d="M427.22 813.382c2.875 2.3 5.75 2.875 9.2 1.725 44.849-16.1 77.624-44.274 100.623-82.223 9.2 1.149 18.975 2.299 28.175 2.299 57.499 0 116.148-25.299 152.373-72.448 66.124-85.099 40.824-228.272-77.049-269.096-20.125-6.9-41.4-11.5-62.099-12.65-1.725-19.55-4.025-39.674-5.75-59.799-.575-4.6-3.45-6.325-7.475-6.325h-30.474c-4.6 0-6.9 2.875-6.325 7.475 2.3 20.7 4.6 40.249 6.899 59.799-89.123 10.925-170.197 73.024-199.521 174.797 0-58.074 6.9-118.448 18.399-185.722.575-4.6-1.725-7.475-6.325-7.475h-29.899c-4.025 0-6.9 2.3-7.475 6.325-14.375 96.024-22.425 212.747-8.625 332.345.575 4.6 2.875 6.325 7.475 6.325l25.875-2.875c4.6-.575 6.325-3.45 6.325-7.475q-3.45-35.362 1.725-70.724c14.374-99.473 91.998-193.772 195.496-206.997 8.05 108.099 4.025 199.522-24.724 264.496-36.225-13.225-67.849-42.549-83.949-90.848-1.725-5.75-5.75-6.325-9.2-1.725l-15.524 22.999c-2.3 2.875-2.875 5.75-1.15 9.2 17.824 48.299 51.174 79.349 89.698 96.024-20.7 29.324-49.449 50.599-87.398 62.674-5.75 1.725-6.9 5.175-2.3 9.2zm128.798-119.023c27.6-71.299 32.2-166.747 25.3-274.271 18.399 2.3 44.274 8.05 60.374 16.675 78.774 43.699 85.673 148.348 40.824 202.397-30.474 37.949-79.349 58.074-126.498 55.199"/></svg>