<svg xmlns="http://www.w3.org/2000/svg" xml:space="preserve" width="1024" height="1024" stroke-miterlimit="10" style="fill-rule:nonzero;clip-rule:evenodd;stroke-linecap:round;stroke-linejoin:round" viewBox="0 0 1024 1024"><path fill="#b6c" d="M360.719 19.344S236.525 129.11 139.594 297C42.662 464.89 9.688 627.312 9.688 627.312L663.28 1004.66l178.344-308.879 172.685-299.093z"/><path fill="#eae5ff" d="M1014.3 396.681S981.323 559.11 884.391 727s-221.109 277.67-221.109 277.67 32.98-162.433 129.911-330.323C890.125 506.456 1014.3 396.681 1014.3 396.681"/><path fill="#fff" d="M293.385 287.887c-3.429 1.34-5.365 3.542-6.094 7.105-8.481 46.891-.469 89.362 20.897 128.255-5.596 7.392-11.48 15.282-16.08 23.249-28.749 49.796-36.164 113.238-13.443 168.183 40.635 99.815 177.276 149.491 271.568 67.822 16.038-13.978 30.659-30.103 42.004-47.454 17.793 8.281 36.372 16.351 54.663 24.92 4.271 1.802 7.202.174 9.215-3.311l15.237-26.392c2.3-3.984.96-7.413-3.311-9.215-19.076-8.358-37.157-16.141-55.237-23.924 35.1-82.646 21.858-183.907-51.618-260.19 50.293 29.037 99.129 65.2 151.64 108.796 3.696 2.798 7.336 2.244 9.636-1.74l14.95-25.894c2.012-3.486 1.458-7.125-1.74-9.636-75.972-60.46-173.032-125.793-283.507-173.642-4.271-1.802-6.915-.672-9.215 3.311l-10.448 23.846c-1.802 4.271-.174 7.202 3.311 9.215q32.35 14.693 60.387 36.856c78.959 62.185 121.812 176.559 81.516 272.803-97.641-47.077-174.804-96.275-216.698-153.66 29.565-24.758 70.773-37.484 120.651-27.277 5.842 1.381 8.353-1.817 6.094-7.105l-12.156-24.944c-1.34-3.43-3.542-5.365-7.392-5.596-50.741-8.713-94.305 4.643-128.008 29.669-15.046-32.589-19.096-68.124-10.578-107.026 1.381-5.842-1.032-8.563-6.818-6.592zm38.678 171.054c47.947 59.552 128.308 111.26 224.876 159.046-11.192 14.784-29.109 34.317-44.628 43.948-77.231 46.37-171.31.022-195.693-65.844-17.628-45.366-10.619-97.755 15.445-137.15"/></svg>